<svg xmlns="http://www.w3.org/2000/svg" width="1200" height="1760" viewBox="0 0 1200 1760" role="img" aria-labelledby="flow-title flow-description">
<title id="flow-title">How DiscDock works</title>
<desc id="flow-description">A disc is inserted and identified. Movies and series are scanned, named and ripped with MakeMKV. When MakeMKV hits damage, a rescue rip copies the movie while skipping unreadable blocks, retries the skipped spots, and extracts the movie with MakeMKV, then FFmpeg, then VLC, whichever manages first. Audio CDs are ripped to FLAC with cyanrip while the album is found on MusicBrainz. A game, program or any other disc has its files listed so you can name it, and is then copied whole into an image that opens as a drive, checked against the disc. Every rip is verified and the disc is ejected. Then movies can be transcoded or get loading screens or AI repair, and CD tracks are named and tagged or wait in staging for their album, before everything moves into the library and you are notified. A second drive can rip meanwhile.</desc>
<!-- Generated by scripts/make-flowchart.mjs. Icons: Lucide (ISC license). -->
<defs>
<radialGradient id="glow" cx="88%" cy="0%" r="75%"><stop offset="0" stop-color="#40ddc6" stop-opacity="0.16"/><stop offset="1" stop-color="#40ddc6" stop-opacity="0"/></radialGradient>
<marker id="arrow-teal" viewBox="0 0 10 10" refX="9" refY="5" markerUnits="userSpaceOnUse" markerWidth="11" markerHeight="11" orient="auto-start-reverse"><path d="M1 1.5L9 5L1 8.5Z" fill="#40ddc6"/></marker>
<marker id="arrow-sky" viewBox="0 0 10 10" refX="9" refY="5" markerUnits="userSpaceOnUse" markerWidth="11" markerHeight="11" orient="auto-start-reverse"><path d="M1 1.5L9 5L1 8.5Z" fill="#6cc4f5"/></marker>
<marker id="arrow-amber" viewBox="0 0 10 10" refX="9" refY="5" markerUnits="userSpaceOnUse" markerWidth="11" markerHeight="11" orient="auto-start-reverse"><path d="M1 1.5L9 5L1 8.5Z" fill="#f2b545"/></marker>
<marker id="arrow-violet" viewBox="0 0 10 10" refX="9" refY="5" markerUnits="userSpaceOnUse" markerWidth="11" markerHeight="11" orient="auto-start-reverse"><path d="M1 1.5L9 5L1 8.5Z" fill="#b39cff"/></marker>
<marker id="arrow-emerald" viewBox="0 0 10 10" refX="9" refY="5" markerUnits="userSpaceOnUse" markerWidth="11" markerHeight="11" orient="auto-start-reverse"><path d="M1 1.5L9 5L1 8.5Z" fill="#5ddc9a"/></marker>
<marker id="arrow-rule" viewBox="0 0 10 10" refX="9" refY="5" markerUnits="userSpaceOnUse" markerWidth="11" markerHeight="11" orient="auto-start-reverse"><path d="M1 1.5L9 5L1 8.5Z" fill="#3a5652"/></marker>
</defs>
<style>
text { font-family: 'Segoe UI', Inter, -apple-system, BlinkMacSystemFont, Roboto, 'Helvetica Neue', Arial, sans-serif; }
.heading { font-size: 30px; font-weight: 700; fill: #e9f6f3; letter-spacing: -0.01em; }
.lead { font-size: 16px; fill: #8ea8a4; }
.title { font-size: 16px; font-weight: 600; fill: #e9f6f3; }
.part { font-size: 14px; font-weight: 600; fill: #e9f6f3; }
.number { font-size: 13px; font-weight: 700; }
.sub { font-size: 12.5px; fill: #8ea8a4; }
.pill { font-size: 14px; font-weight: 600; }
.note { font-size: 11px; font-weight: 700; letter-spacing: 0.08em; }
.group { font-size: 13px; font-weight: 600; fill: #8ea8a4; }
.foot { font-size: 14px; fill: #8ea8a4; }
</style>
<rect width="1200" height="1760" rx="28" fill="#0a1416"/>
<rect width="1200" height="1760" rx="28" fill="url(#glow)"/>
<rect x="0.75" y="0.75" width="1198.5" height="1758.5" rx="27.5" fill="none" stroke="#ffffff" stroke-opacity="0.08"/>
<svg x="40" y="34" width="56" height="56" viewBox="0 0 64 64">
  <rect width="64" height="64" rx="16" fill="#40ddc6"/>
  <circle cx="32" cy="32" r="20" fill="#071013"/>
  <circle cx="32" cy="32" r="12" fill="none" stroke="#40ddc6" stroke-opacity=".35" stroke-width="2"/>
  <circle cx="32" cy="32" r="5" fill="#40ddc6"/>
  <path d="M32 12a20 20 0 0 1 17.3 10" fill="none" stroke="#eef7f5" stroke-opacity=".55" stroke-width="2" stroke-linecap="round"/>
</svg>

<text x="112" y="68" class="heading">How DiscDock works</text>
<text x="112" y="96" class="lead">Insert a disc. DiscDock identifies it, rips it, checks it and files it in your library.</text>
<rect x="430" y="140" width="340" height="84" rx="18" fill="#0f1f22" stroke="#21393d" stroke-width="1.5"/>
<rect x="446" y="162" width="40" height="40" rx="12" fill="#40ddc6" fill-opacity="0.15"/>
<g transform="translate(454 170) scale(1)" fill="none" stroke="#40ddc6" stroke-width="2" stroke-linecap="round" stroke-linejoin="round"><circle cx="12" cy="12" r="10"/><path d="M6 12c0-1.7.7-3.2 1.8-4.2"/><circle cx="12" cy="12" r="2"/><path d="M18 12c0 1.7-.7 3.2-1.8 4.2"/></g>
<text x="500" y="179" class="title">Insert a disc</text>
<text x="500" y="199" class="sub">DiscDock watches every drive</text>
<path d="M600 224V262" fill="none" stroke="#40ddc6" stroke-width="2" stroke-linecap="round" stroke-linejoin="round" marker-end="url(#arrow-teal)"/>
<rect x="430" y="264" width="340" height="84" rx="18" fill="#0f1f22" stroke="#21393d" stroke-width="1.5"/>
<rect x="446" y="286" width="40" height="40" rx="12" fill="#40ddc6" fill-opacity="0.15"/>
<g transform="translate(454 294) scale(1)" fill="none" stroke="#40ddc6" stroke-width="2" stroke-linecap="round" stroke-linejoin="round"><path d="M3 7V5a2 2 0 0 1 2-2h2"/><path d="M17 3h2a2 2 0 0 1 2 2v2"/><path d="M21 17v2a2 2 0 0 1-2 2h-2"/><path d="M7 21H5a2 2 0 0 1-2-2v-2"/><circle cx="12" cy="12" r="3"/><path d="m16 16-1.9-1.9"/></g>
<text x="500" y="303" class="title">Identify the disc</text>
<text x="500" y="323" class="sub">Blu-ray, DVD, audio CD, game or data</text>
<path d="M600 348V374" fill="none" stroke="#3a5652" stroke-width="2" stroke-linecap="round" stroke-linejoin="round"/>
<path d="M600 374H314Q300 374 300 388V398" fill="none" stroke="#40ddc6" stroke-width="2" stroke-linecap="round" stroke-linejoin="round" marker-end="url(#arrow-teal)"/>
<rect x="205" y="400" width="190" height="36" rx="18" fill="#40ddc6" fill-opacity="0.12" stroke="#40ddc6" stroke-opacity="0.55"/>
<g transform="translate(219 409) scale(0.75)" fill="none" stroke="#40ddc6" stroke-width="2" stroke-linecap="round" stroke-linejoin="round"><rect width="18" height="18" x="3" y="3" rx="2"/><path d="M7 3v18"/><path d="M3 7.5h4"/><path d="M3 12h18"/><path d="M3 16.5h4"/><path d="M17 3v18"/><path d="M17 7.5h4"/><path d="M17 16.5h4"/></g>
<text x="245" y="423" class="pill" fill="#40ddc6">Movies &amp; series</text>
<path d="M600 374H726Q740 374 740 388V398" fill="none" stroke="#6cc4f5" stroke-width="2" stroke-linecap="round" stroke-linejoin="round" marker-end="url(#arrow-sky)"/>
<rect x="674" y="400" width="132" height="36" rx="18" fill="#6cc4f5" fill-opacity="0.12" stroke="#6cc4f5" stroke-opacity="0.55"/>
<g transform="translate(688 409) scale(0.75)" fill="none" stroke="#6cc4f5" stroke-width="2" stroke-linecap="round" stroke-linejoin="round"><path d="M9 18V5l12-2v13"/><circle cx="6" cy="18" r="3"/><circle cx="18" cy="16" r="3"/></g>
<text x="714" y="423" class="pill" fill="#6cc4f5">Audio CD</text>
<path d="M600 374H1031Q1045 374 1045 388V398" fill="none" stroke="#b39cff" stroke-width="2" stroke-linecap="round" stroke-linejoin="round" marker-end="url(#arrow-violet)"/>
<rect x="970" y="400" width="150" height="36" rx="18" fill="#b39cff" fill-opacity="0.12" stroke="#b39cff" stroke-opacity="0.55"/>
<g transform="translate(984 409) scale(0.75)" fill="none" stroke="#b39cff" stroke-width="2" stroke-linecap="round" stroke-linejoin="round"><path d="M10 16h.01"/><path d="M2.212 11.577a2 2 0 0 0-.212.896V18a2 2 0 0 0 2 2h16a2 2 0 0 0 2-2v-5.527a2 2 0 0 0-.212-.896L18.55 5.11A2 2 0 0 0 16.76 4H7.24a2 2 0 0 0-1.79 1.11z"/><path d="M21.946 12.013H2.054"/><path d="M6 16h.01"/></g>
<text x="1010" y="423" class="pill" fill="#b39cff">Game or data</text>
<path d="M300 436V438Q300 452 286 452H179Q165 452 165 466V468" fill="none" stroke="#40ddc6" stroke-width="2" stroke-linecap="round" stroke-linejoin="round" marker-end="url(#arrow-teal)"/>
<rect x="40" y="470" width="250" height="84" rx="18" fill="#0f1f22" stroke="#21393d" stroke-width="1.5"/>
<rect x="56" y="492" width="40" height="40" rx="12" fill="#40ddc6" fill-opacity="0.15"/>
<g transform="translate(64 500) scale(1)" fill="none" stroke="#40ddc6" stroke-width="2" stroke-linecap="round" stroke-linejoin="round"><path d="m12.296 3.464 3.02 3.956"/><path d="M20.2 6 3 11l-.9-2.4c-.3-1.1.3-2.2 1.3-2.5l13.5-4c1.1-.3 2.2.3 2.5 1.3z"/><path d="M3 11h18v8a2 2 0 0 1-2 2H5a2 2 0 0 1-2-2z"/><path d="m6.18 5.276 3.1 3.899"/></g>
<text x="110" y="503" class="title">Scan and name</text>
<text x="110" y="523" class="sub">MakeMKV reads the titles,</text>
<text x="110" y="540" class="sub">OMDb names the movie</text>
<path d="M165 554V588" fill="none" stroke="#40ddc6" stroke-width="2" stroke-linecap="round" stroke-linejoin="round" marker-end="url(#arrow-teal)"/>
<rect x="40" y="590" width="250" height="84" rx="18" fill="#0f1f22" stroke="#21393d" stroke-width="1.5"/>
<rect x="56" y="612" width="40" height="40" rx="12" fill="#40ddc6" fill-opacity="0.15"/>
<g transform="translate(64 620) scale(1)" fill="none" stroke="#40ddc6" stroke-width="2" stroke-linecap="round" stroke-linejoin="round"><path d="M13 5h8"/><path d="M13 12h8"/><path d="M13 19h8"/><path d="m3 17 2 2 4-4"/><path d="m3 7 2 2 4-4"/></g>
<text x="110" y="623" class="title">Choose the titles</text>
<text x="110" y="643" class="sub">Main feature, or your pick</text>
<text x="110" y="660" class="sub">on the dashboard</text>
<path d="M165 674V708" fill="none" stroke="#40ddc6" stroke-width="2" stroke-linecap="round" stroke-linejoin="round" marker-end="url(#arrow-teal)"/>
<rect x="40" y="710" width="250" height="84" rx="18" fill="#0f1f22" stroke="#21393d" stroke-width="1.5"/>
<rect x="56" y="732" width="40" height="40" rx="12" fill="#40ddc6" fill-opacity="0.15"/>
<g transform="translate(64 740) scale(1)" fill="none" stroke="#40ddc6" stroke-width="2" stroke-linecap="round" stroke-linejoin="round"><rect width="18" height="18" x="3" y="3" rx="2"/><circle cx="12" cy="12" r="5"/><path d="M12 12h.01"/></g>
<text x="110" y="743" class="title">Rip with MakeMKV</text>
<text x="110" y="763" class="sub">The chosen titles become</text>
<text x="110" y="780" class="sub">MKV files in staging</text>
<text x="332" y="698" class="note" fill="#f2b545">IF THE DISC IS DAMAGED</text>
<path d="M290 752H328" fill="none" stroke="#f2b545" stroke-width="2" stroke-linecap="round" stroke-linejoin="round" stroke-dasharray="7 6" marker-end="url(#arrow-amber)"/>
<rect x="330" y="710" width="230" height="84" rx="18" fill="#0f1f22" stroke="#f2b545" stroke-opacity="0.7" stroke-dasharray="7 6" stroke-width="1.5"/>
<rect x="346" y="732" width="40" height="40" rx="12" fill="#f2b545" fill-opacity="0.15"/>
<g transform="translate(354 740) scale(1)" fill="none" stroke="#f2b545" stroke-width="2" stroke-linecap="round" stroke-linejoin="round"><circle cx="12" cy="12" r="10"/><path d="m4.93 4.93 4.24 4.24"/><path d="m14.83 9.17 4.24-4.24"/><path d="m14.83 14.83 4.24 4.24"/><path d="m9.17 14.83-4.24 4.24"/><circle cx="12" cy="12" r="4"/></g>
<text x="400" y="743" class="title">Rescue rip</text>
<text x="400" y="763" class="sub">If MakeMKV hits damage,</text>
<text x="400" y="780" class="sub">or from Start rescue rip</text>
<path d="M445 794V828" fill="none" stroke="#f2b545" stroke-width="2" stroke-linecap="round" stroke-linejoin="round" stroke-dasharray="7 6" marker-end="url(#arrow-amber)"/>
<rect x="330" y="830" width="230" height="64" rx="14" fill="#0f1f22" stroke="#f2b545" stroke-opacity="0.45" stroke-dasharray="5 5" stroke-width="1.2"/>
<circle cx="356" cy="862" r="13" fill="#f2b545" fill-opacity="0.16"/>
<text x="356" y="867" text-anchor="middle" class="number" fill="#f2b545">1</text>
<text x="380" y="858" class="part">Copy the movie</text>
<text x="380" y="876" class="sub">skipping unreadable blocks</text>
<path d="M445 894V914" fill="none" stroke="#f2b545" stroke-width="2" stroke-linecap="round" stroke-linejoin="round" stroke-dasharray="7 6" marker-end="url(#arrow-amber)"/>
<rect x="330" y="916" width="230" height="64" rx="14" fill="#0f1f22" stroke="#f2b545" stroke-opacity="0.45" stroke-dasharray="5 5" stroke-width="1.2"/>
<circle cx="356" cy="948" r="13" fill="#f2b545" fill-opacity="0.16"/>
<text x="356" y="953" text-anchor="middle" class="number" fill="#f2b545">2</text>
<text x="380" y="944" class="part">Retry skipped spots</text>
<text x="380" y="962" class="sub">until nothing more comes</text>
<path d="M445 980V1000" fill="none" stroke="#f2b545" stroke-width="2" stroke-linecap="round" stroke-linejoin="round" stroke-dasharray="7 6" marker-end="url(#arrow-amber)"/>
<rect x="330" y="1002" width="230" height="64" rx="14" fill="#0f1f22" stroke="#f2b545" stroke-opacity="0.45" stroke-dasharray="5 5" stroke-width="1.2"/>
<circle cx="356" cy="1034" r="13" fill="#f2b545" fill-opacity="0.16"/>
<text x="356" y="1039" text-anchor="middle" class="number" fill="#f2b545">3</text>
<text x="380" y="1030" class="part">Extract the movie</text>
<text x="380" y="1048" class="sub">MakeMKV, then FFmpeg, then VLC</text>
<path d="M740 436V468" fill="none" stroke="#6cc4f5" stroke-width="2" stroke-linecap="round" stroke-linejoin="round" marker-end="url(#arrow-sky)"/>
<rect x="610" y="470" width="260" height="84" rx="18" fill="#0f1f22" stroke="#21393d" stroke-width="1.5"/>
<rect x="626" y="492" width="40" height="40" rx="12" fill="#6cc4f5" fill-opacity="0.15"/>
<g transform="translate(634 500) scale(1)" fill="none" stroke="#6cc4f5" stroke-width="2" stroke-linecap="round" stroke-linejoin="round"><path d="M2 10v3"/><path d="M6 6v11"/><path d="M10 3v18"/><path d="M14 8v7"/><path d="M18 5v13"/><path d="M22 10v3"/></g>
<text x="680" y="503" class="title">Rip to FLAC</text>
<text x="680" y="523" class="sub">cyanrip with AccurateRip</text>
<text x="680" y="540" class="sub">and your drive's offset</text>
<path d="M740 554V588" fill="none" stroke="#6cc4f5" stroke-width="2" stroke-linecap="round" stroke-linejoin="round" stroke-dasharray="7 6" marker-end="url(#arrow-sky)"/>
<text x="752" y="576" class="note" fill="#6cc4f5">MEANWHILE</text>
<rect x="610" y="590" width="260" height="84" rx="18" fill="#0f1f22" stroke="#21393d" stroke-width="1.5"/>
<rect x="626" y="612" width="40" height="40" rx="12" fill="#6cc4f5" fill-opacity="0.15"/>
<g transform="translate(634 620) scale(1)" fill="none" stroke="#6cc4f5" stroke-width="2" stroke-linecap="round" stroke-linejoin="round"><path d="m21 21-4.34-4.34"/><circle cx="11" cy="11" r="8"/></g>
<text x="680" y="623" class="title">Find the album</text>
<text x="680" y="643" class="sub">MusicBrainz while it rips,</text>
<text x="680" y="660" class="sub">or barcode, search, OCR</text>
<path d="M740 674V708" fill="none" stroke="#6cc4f5" stroke-width="2" stroke-linecap="round" stroke-linejoin="round" marker-end="url(#arrow-sky)"/>
<rect x="610" y="710" width="260" height="84" rx="18" fill="#0f1f22" stroke="#21393d" stroke-width="1.5"/>
<rect x="626" y="732" width="40" height="40" rx="12" fill="#6cc4f5" fill-opacity="0.15"/>
<g transform="translate(634 740) scale(1)" fill="none" stroke="#6cc4f5" stroke-width="2" stroke-linecap="round" stroke-linejoin="round"><rect width="18" height="18" x="3" y="3" rx="2" ry="2"/><circle cx="9" cy="9" r="2"/><path d="m21 15-3.086-3.086a2 2 0 0 0-2.828 0L6 21"/></g>
<text x="680" y="743" class="title">Pick the cover</text>
<text x="680" y="763" class="sub">Cover Art Archive or your</text>
<text x="680" y="780" class="sub">photo in the cover editor</text>
<path d="M1045 436V468" fill="none" stroke="#b39cff" stroke-width="2" stroke-linecap="round" stroke-linejoin="round" marker-end="url(#arrow-violet)"/>
<rect x="930" y="470" width="230" height="84" rx="18" fill="#0f1f22" stroke="#21393d" stroke-width="1.5"/>
<rect x="946" y="492" width="40" height="40" rx="12" fill="#b39cff" fill-opacity="0.15"/>
<g transform="translate(954 500) scale(1)" fill="none" stroke="#b39cff" stroke-width="2" stroke-linecap="round" stroke-linejoin="round"><path d="M10.7 20H4a2 2 0 0 1-2-2V5a2 2 0 0 1 2-2h3.9a2 2 0 0 1 1.69.9l.81 1.2a2 2 0 0 0 1.67.9H20a2 2 0 0 1 2 2v4.1"/><path d="m21 21-1.9-1.9"/><circle cx="17" cy="17" r="3"/></g>
<text x="1000" y="503" class="title">Show what is on it</text>
<text x="1000" y="523" class="sub">Every file, so you can</text>
<text x="1000" y="540" class="sub">see it and name it</text>
<path d="M1045 554V588" fill="none" stroke="#b39cff" stroke-width="2" stroke-linecap="round" stroke-linejoin="round" marker-end="url(#arrow-violet)"/>
<rect x="930" y="590" width="230" height="84" rx="18" fill="#0f1f22" stroke="#21393d" stroke-width="1.5"/>
<rect x="946" y="612" width="40" height="40" rx="12" fill="#b39cff" fill-opacity="0.15"/>
<g transform="translate(954 620) scale(1)" fill="none" stroke="#b39cff" stroke-width="2" stroke-linecap="round" stroke-linejoin="round"><rect width="20" height="5" x="2" y="3" rx="1"/><path d="M4 8v11a2 2 0 0 0 2 2h12a2 2 0 0 0 2-2V8"/><path d="M10 12h4"/></g>
<text x="1000" y="623" class="title">Copy the whole disc</text>
<text x="1000" y="643" class="sub">An image that opens</text>
<text x="1000" y="660" class="sub">as a drive, checked</text>
<path d="M165 794V1110" fill="none" stroke="#40ddc6" stroke-width="2" stroke-linecap="round" stroke-linejoin="round"/>
<path d="M445 1066V1110" fill="none" stroke="#f2b545" stroke-width="2" stroke-linecap="round" stroke-linejoin="round" stroke-dasharray="7 6"/>
<path d="M740 794V1110" fill="none" stroke="#6cc4f5" stroke-width="2" stroke-linecap="round" stroke-linejoin="round"/>
<path d="M1045 554V1110" fill="none" stroke="#b39cff" stroke-width="2" stroke-linecap="round" stroke-linejoin="round"/>
<path d="M165 1110H1045" fill="none" stroke="#3a5652" stroke-width="2" stroke-linecap="round" stroke-linejoin="round"/>
<circle cx="165" cy="1110" r="4.5" fill="#40ddc6"/>
<circle cx="445" cy="1110" r="4.5" fill="#f2b545"/>
<circle cx="740" cy="1110" r="4.5" fill="#6cc4f5"/>
<circle cx="1045" cy="1110" r="4.5" fill="#b39cff"/>
<path d="M600 1110V1158" fill="none" stroke="#40ddc6" stroke-width="2" stroke-linecap="round" stroke-linejoin="round" marker-end="url(#arrow-teal)"/>
<rect x="430" y="1160" width="340" height="84" rx="18" fill="#0f1f22" stroke="#21393d" stroke-width="1.5"/>
<rect x="446" y="1182" width="40" height="40" rx="12" fill="#5ddc9a" fill-opacity="0.15"/>
<g transform="translate(454 1190) scale(1)" fill="none" stroke="#5ddc9a" stroke-width="2" stroke-linecap="round" stroke-linejoin="round"><path d="M20 13c0 5-3.5 7.5-7.66 8.95a1 1 0 0 1-.67-.01C7.5 20.5 4 18 4 13V6a1 1 0 0 1 1-1c2 0 4.5-1.2 6.24-2.72a1.17 1.17 0 0 1 1.52 0C14.51 3.81 17 5 19 5a1 1 0 0 1 1 1z"/><path d="m9 12 2 2 4-4"/></g>
<text x="500" y="1193" class="title">Verify the rip</text>
<text x="500" y="1213" class="sub">FFprobe checks the video and audio</text>
<text x="500" y="1230" class="sub">files before they reach the library</text>
<path d="M600 1244V1278" fill="none" stroke="#40ddc6" stroke-width="2" stroke-linecap="round" stroke-linejoin="round" marker-end="url(#arrow-teal)"/>
<rect x="430" y="1280" width="340" height="84" rx="18" fill="#0f1f22" stroke="#21393d" stroke-width="1.5"/>
<rect x="446" y="1302" width="40" height="40" rx="12" fill="#40ddc6" fill-opacity="0.15"/>
<g transform="translate(454 1310) scale(1)" fill="none" stroke="#40ddc6" stroke-width="2" stroke-linecap="round" stroke-linejoin="round"><path d="M4 13a1 1 0 0 1-.72-1.695l7.257-7.668a2 2 0 0 1 2.926 0l7.256 7.668A1 1 0 0 1 20 13z"/><rect x="3" y="17" width="18" height="4" rx="1"/></g>
<text x="500" y="1313" class="title">Eject the disc</text>
<text x="500" y="1333" class="sub">The disc comes out as soon</text>
<text x="500" y="1350" class="sub">as the rip is verified</text>
<path d="M600 1364V1398" fill="none" stroke="#40ddc6" stroke-width="2" stroke-linecap="round" stroke-linejoin="round" marker-end="url(#arrow-teal)"/>
<rect x="40" y="1400" width="1120" height="150" rx="22" fill="#40ddc6" fill-opacity="0.03" stroke="#ffffff" stroke-opacity="0.16" stroke-dasharray="7 6"/>
<rect x="64" y="1386" width="214" height="28" rx="14" fill="#0a1416" stroke="#ffffff" stroke-opacity="0.18"/>
<g transform="translate(78 1392) scale(0.6666666666666666)" fill="none" stroke="#8ea8a4" stroke-width="2" stroke-linecap="round" stroke-linejoin="round"><path d="M5 22h14"/><path d="M5 2h14"/><path d="M17 22v-4.172a2 2 0 0 0-.586-1.414L12 12l-4.414 4.414A2 2 0 0 0 7 17.828V22"/><path d="M7 2v4.172a2 2 0 0 0 .586 1.414L12 12l4.414-4.414A2 2 0 0 0 17 6.172V2"/></g>
<text x="102" y="1405" class="group">After the disc is out</text>
<rect x="856" y="1386" width="280" height="28" rx="14" fill="#0a1416" stroke="#ffffff" stroke-opacity="0.18"/>
<g transform="translate(870 1392) scale(0.6666666666666666)" fill="none" stroke="#8ea8a4" stroke-width="2" stroke-linecap="round" stroke-linejoin="round"><circle cx="12" cy="12" r="10"/><circle cx="12" cy="12" r="2"/></g>
<text x="894" y="1405" class="group">A second drive can rip meanwhile</text>
<rect x="80" y="1432" width="320" height="84" rx="18" fill="#0f1f22" stroke="#40ddc6" stroke-opacity="0.7" stroke-dasharray="7 6" stroke-width="1.5"/>
<rect x="96" y="1454" width="40" height="40" rx="12" fill="#40ddc6" fill-opacity="0.15"/>
<g transform="translate(104 1462) scale(1)" fill="none" stroke="#40ddc6" stroke-width="2" stroke-linecap="round" stroke-linejoin="round"><path d="M12 20v2"/><path d="M12 2v2"/><path d="M17 20v2"/><path d="M17 2v2"/><path d="M2 12h2"/><path d="M2 17h2"/><path d="M2 7h2"/><path d="M20 12h2"/><path d="M20 17h2"/><path d="M20 7h2"/><path d="M7 20v2"/><path d="M7 2v2"/><rect x="4" y="4" width="16" height="16" rx="2"/><rect x="8" y="8" width="8" height="8" rx="1"/></g>
<text x="150" y="1471" class="title">Transcode with HandBrake</text>
<text x="150" y="1491" class="sub">Optional: smaller video files</text>
<rect x="440" y="1432" width="320" height="84" rx="18" fill="#0f1f22" stroke="#f2b545" stroke-opacity="0.7" stroke-dasharray="7 6" stroke-width="1.5"/>
<rect x="456" y="1454" width="40" height="40" rx="12" fill="#f2b545" fill-opacity="0.15"/>
<g transform="translate(464 1462) scale(1)" fill="none" stroke="#f2b545" stroke-width="2" stroke-linecap="round" stroke-linejoin="round"><path d="M11.017 2.814a1 1 0 0 1 1.966 0l1.051 5.558a2 2 0 0 0 1.594 1.594l5.558 1.051a1 1 0 0 1 0 1.966l-5.558 1.051a2 2 0 0 0-1.594 1.594l-1.051 5.558a1 1 0 0 1-1.966 0l-1.051-5.558a2 2 0 0 0-1.594-1.594l-5.558-1.051a1 1 0 0 1 0-1.966l5.558-1.051a2 2 0 0 0 1.594-1.594z"/><path d="M20 2v4"/><path d="M22 4h-4"/><circle cx="4" cy="20" r="2"/></g>
<text x="510" y="1471" class="title">Loading screens or AI repair</text>
<text x="510" y="1491" class="sub">For movies from damaged discs</text>
<rect x="800" y="1432" width="320" height="84" rx="18" fill="#0f1f22" stroke="#21393d" stroke-width="1.5"/>
<rect x="816" y="1454" width="40" height="40" rx="12" fill="#6cc4f5" fill-opacity="0.15"/>
<g transform="translate(824 1462) scale(1)" fill="none" stroke="#6cc4f5" stroke-width="2" stroke-linecap="round" stroke-linejoin="round"><path d="M13.172 2a2 2 0 0 1 1.414.586l6.71 6.71a2.4 2.4 0 0 1 0 3.408l-4.592 4.592a2.4 2.4 0 0 1-3.408 0l-6.71-6.71A2 2 0 0 1 6 9.172V3a1 1 0 0 1 1-1z"/><path d="M2 7v6.172a2 2 0 0 0 .586 1.414l6.71 6.71a2.4 2.4 0 0 0 3.191.193"/><circle cx="10.5" cy="6.5" r=".5" fill="currentColor"/></g>
<text x="870" y="1471" class="title">Name and tag the tracks</text>
<text x="870" y="1491" class="sub">Or wait in staging for the album</text>
<path d="M420 1550V1588" fill="none" stroke="#5ddc9a" stroke-width="2" stroke-linecap="round" stroke-linejoin="round" marker-end="url(#arrow-emerald)"/>
<rect x="260" y="1590" width="320" height="84" rx="18" fill="#0f1f22" stroke="#21393d" stroke-width="1.5"/>
<rect x="276" y="1612" width="40" height="40" rx="12" fill="#5ddc9a" fill-opacity="0.15"/>
<g transform="translate(284 1620) scale(1)" fill="none" stroke="#5ddc9a" stroke-width="2" stroke-linecap="round" stroke-linejoin="round"><path d="m16 6 4 14"/><path d="M12 6v14"/><path d="M8 8v12"/><path d="M4 4v16"/></g>
<text x="330" y="1629" class="title">Move into the library</text>
<text x="330" y="1649" class="sub">Movies, series, music and backups</text>
<path d="M580 1632H618" fill="none" stroke="#5ddc9a" stroke-width="2" stroke-linecap="round" stroke-linejoin="round" marker-end="url(#arrow-emerald)"/>
<rect x="620" y="1590" width="320" height="84" rx="18" fill="#0f1f22" stroke="#21393d" stroke-width="1.5"/>
<rect x="636" y="1612" width="40" height="40" rx="12" fill="#5ddc9a" fill-opacity="0.15"/>
<g transform="translate(644 1620) scale(1)" fill="none" stroke="#5ddc9a" stroke-width="2" stroke-linecap="round" stroke-linejoin="round"><path d="M10.268 21a2 2 0 0 0 3.464 0"/><path d="M22 8c0-2.3-.8-4.3-2-6"/><path d="M3.262 15.326A1 1 0 0 0 4 17h16a1 1 0 0 0 .74-1.673C19.41 13.956 18 12.499 18 8A6 6 0 0 0 6 8c0 4.499-1.411 5.956-2.738 7.326"/><path d="M4 2C2.8 3.7 2 5.7 2 8"/></g>
<text x="690" y="1629" class="title">Notify you</text>
<text x="690" y="1649" class="sub">Discord, Telegram, email and more</text>
<path d="M940 1632H1162Q1182 1632 1182 1612V202Q1182 182 1162 182H772" fill="none" stroke="#40ddc6" stroke-width="2" stroke-linecap="round" stroke-linejoin="round" stroke-dasharray="7 6" marker-end="url(#arrow-teal)"/>
<g transform="translate(1182 900) rotate(-90)"><rect x="-52" y="-14" width="104" height="28" rx="14" fill="#0a1416" stroke="#40ddc6" stroke-opacity="0.55"/><text x="0" y="5" text-anchor="middle" class="pill" fill="#40ddc6">Next disc</text></g>
<g transform="translate(287 1711) scale(0.75)" fill="none" stroke="#40ddc6" stroke-width="2" stroke-linecap="round" stroke-linejoin="round"><rect width="7" height="9" x="3" y="3" rx="1"/><rect width="7" height="5" x="14" y="3" rx="1"/><rect width="7" height="9" x="14" y="12" rx="1"/><rect width="7" height="5" x="3" y="16" rx="1"/></g>
<text x="612" y="1726" text-anchor="middle" class="foot">Follow and control every step on the dashboard · several drives at once · jobs survive restarts</text>
</svg>
